<svg xmlns="http://www.w3.org/2000/svg" viewBox="0 0 88.16 62.61"><defs><style>.cls-1{fill:#feff94;}.cls-2{fill:#fff;}</style></defs><title>자산 3</title><g id="레이어_2" data-name="레이어 2"><g id="레이어_1-2" data-name="레이어 1"><path class="cls-1" d="M30.76,13.09c-10.49-2.6-17,4.69-18.26,12a1,1,0,0,0,1.59,1A12.32,12.32,0,0,1,24.6,23.57a1,1,0,0,0,1.16-.69,18,18,0,0,1,5.42-8.07A1,1,0,0,0,30.76,13.09Z"/><path class="cls-2" d="M76.77,37.83a8.3,8.3,0,0,0-8.3-8.3H68.4a21.14,21.14,0,0,0-41.69-3.61,12.53,12.53,0,0,0-7.41-.43A12.78,12.78,0,0,0,9.78,35.77a12.62,12.62,0,0,0,.92,7.18.87.87,0,0,0,.8.51h7.33a.87.87,0,0,1,.87.87v4.77a.87.87,0,0,0,.87.87h.51a.87.87,0,0,0,.87-.87V35.32a.87.87,0,0,1,.87-.87h.38a.87.87,0,0,1,.87.87V54a.87.87,0,0,0,.87.87h.57a.87.87,0,0,0,.87-.87V39.32a.87.87,0,0,1,.87-.87h.57a.87.87,0,0,1,.87.87V57.74a.87.87,0,0,0,.87.87h.51a.87.87,0,0,0,.87-.87V31.32a.87.87,0,0,1,.87-.87h.45a.87.87,0,0,1,.87.87V54.88a.87.87,0,0,0,.87.87h.2a.87.87,0,0,0,.87-.87V45.32a.87.87,0,0,1,.87-.87h.58a.87.87,0,0,1,.87.87V61.74a.87.87,0,0,0,.87.87h.25a.87.87,0,0,0,.87-.87V24.32a.87.87,0,0,1,.87-.87h.5a.87.87,0,0,1,.87.87V58a.87.87,0,0,0,.87.87h0a.87.87,0,0,0,.87-.87V40.34a.87.87,0,0,1,.89-.87h.28a.87.87,0,0,1,.85.87V50a.87.87,0,0,0,.87.87h.09a.87.87,0,0,0,.87-.87V44.37a.87.87,0,0,1,.87-.87l26.08,0a.87.87,0,0,0,.67-.3A8.25,8.25,0,0,0,76.77,37.83Z"/><ellipse class="cls-1" cx="33.2" cy="5.33" rx="4.27" ry="0.74" transform="translate(16.45 34.49) rotate(-69.25)"/><ellipse class="cls-1" cx="22.07" cy="4.22" rx="0.74" ry="4.27" transform="translate(-0.39 3.6) rotate(-9.25)"/><ellipse class="cls-1" cx="11.87" cy="8.82" rx="0.74" ry="4.27" transform="translate(-2.9 9.5) rotate(-39.25)"/><ellipse class="cls-1" cx="5.33" cy="17.9" rx="0.74" ry="4.27" transform="translate(-13.29 16.55) rotate(-69.25)"/><ellipse class="cls-1" cx="4.22" cy="29.03" rx="4.27" ry="0.74" transform="matrix(0.99, -0.16, 0.16, 0.99, -4.61, 1.06)"/><path class="cls-2" d="M51.18,51.06l.94-.08a2.08,2.08,0,0,0,.31.93,1.7,1.7,0,0,0,.76.59,2.87,2.87,0,0,0,1.16.22,2.77,2.77,0,0,0,1-.17,1.4,1.4,0,0,0,.65-.46,1.08,1.08,0,0,0,.21-.65,1,1,0,0,0-.21-.62,1.53,1.53,0,0,0-.68-.44A13.29,13.29,0,0,0,54,50a6.88,6.88,0,0,1-1.45-.47,2,2,0,0,1-.8-.7,1.72,1.72,0,0,1-.26-.94,1.91,1.91,0,0,1,.32-1.07,2,2,0,0,1,.95-.75,3.59,3.59,0,0,1,1.38-.26,3.77,3.77,0,0,1,1.48.27,2.13,2.13,0,0,1,1,.79A2.29,2.29,0,0,1,57,48.07l-1,.07a1.55,1.55,0,0,0-.52-1.08,2,2,0,0,0-1.31-.36,2.1,2.1,0,0,0-1.32.33,1,1,0,0,0-.41.8.86.86,0,0,0,.29.67,4,4,0,0,0,1.5.54,10,10,0,0,1,1.67.48,2.29,2.29,0,0,1,1,.77,1.87,1.87,0,0,1,.31,1.07,2,2,0,0,1-.34,1.13,2.27,2.27,0,0,1-1,.83,3.45,3.45,0,0,1-1.45.3,4.34,4.34,0,0,1-1.71-.3,2.4,2.4,0,0,1-1.08-.9A2.54,2.54,0,0,1,51.18,51.06Z"/><path class="cls-2" d="M58.24,49.81a4.09,4.09,0,0,1,1-2.94,3.42,3.42,0,0,1,2.6-1.06,3.61,3.61,0,0,1,1.88.5A3.26,3.26,0,0,1,65,47.7a4.51,4.51,0,0,1,.44,2A4.45,4.45,0,0,1,65,51.77a3.16,3.16,0,0,1-1.31,1.37,3.74,3.74,0,0,1-1.83.46,3.57,3.57,0,0,1-1.9-.51,3.31,3.31,0,0,1-1.27-1.4A4.25,4.25,0,0,1,58.24,49.81Zm1,0A3,3,0,0,0,60,52a2.55,2.55,0,0,0,3.69,0,3.2,3.2,0,0,0,.73-2.25,3.86,3.86,0,0,0-.31-1.61A2.39,2.39,0,0,0,63.2,47a2.47,2.47,0,0,0-1.34-.38A2.55,2.55,0,0,0,60,47.4,3.25,3.25,0,0,0,59.27,49.82Z"/><path class="cls-2" d="M71.67,45.94h1V50.3a5.16,5.16,0,0,1-.26,1.8,2.2,2.2,0,0,1-.93,1.09,3.29,3.29,0,0,1-1.76.42A3.62,3.62,0,0,1,68,53.24a2.09,2.09,0,0,1-1-1.06,5,5,0,0,1-.29-1.89V45.94h1v4.35a4.25,4.25,0,0,0,.18,1.45,1.39,1.39,0,0,0,.63.72,2.18,2.18,0,0,0,1.09.25,2.08,2.08,0,0,0,1.57-.5,2.87,2.87,0,0,0,.47-1.92Z"/><path class="cls-2" d="M74.32,53.48V45.94h1l4,5.92V45.94h1v7.54h-1l-4-5.92v5.92Z"/><path class="cls-2" d="M81.93,53.48V45.94h2.6a6.3,6.3,0,0,1,1.34.11,2.56,2.56,0,0,1,1.11.54,3.07,3.07,0,0,1,.89,1.29,5.05,5.05,0,0,1,.3,1.79,5.26,5.26,0,0,1-.2,1.52,3.67,3.67,0,0,1-.51,1.1,2.72,2.72,0,0,1-.69.68,2.78,2.78,0,0,1-.9.38,5.14,5.14,0,0,1-1.21.13Zm1-.89h1.61a3.91,3.91,0,0,0,1.17-.14,1.68,1.68,0,0,0,.68-.39,2.38,2.38,0,0,0,.55-1,4.66,4.66,0,0,0,.2-1.45,3.51,3.51,0,0,0-.39-1.82A2,2,0,0,0,85.8,47a3.89,3.89,0,0,0-1.29-.15H82.93Z"/></g></g></svg>